<svg width="242" height="149" viewBox="0 0 242 149" fill="none" xmlns="http://www.w3.org/2000/svg">
<path d="M182 36.9218C182 51.4673 162.665 94.3633 151.579 117.763C150.827 119.35 149.728 120.673 148.395 121.594C147.063 122.515 145.545 123 144 123C142.455 123 140.937 122.515 139.605 121.594C138.272 120.673 137.173 119.35 136.421 117.763C125.335 94.3633 106 51.4673 106 36.9218C106 16.5304 123.013 0 144 0C164.987 0 182 16.5304 182 36.9218Z" fill="#F69117"/>
<path d="M143.435 61.0812C156.928 61.0812 167.867 50.1424 167.867 36.6488C167.867 23.1551 156.928 12.2163 143.435 12.2163C129.941 12.2163 119.002 23.1551 119.002 36.6488C119.002 50.1424 129.941 61.0812 143.435 61.0812Z" fill="white"/>
<path d="M29.4797 58.7556C37.5619 58.7556 44.1138 52.2038 44.1138 44.1216C44.1138 36.0394 37.5619 29.4875 29.4797 29.4875C21.3976 29.4875 14.8457 36.0394 14.8457 44.1216C14.8457 52.2038 21.3976 58.7556 29.4797 58.7556Z" fill="#FF6584"/>
<path opacity="0.4" d="M26.5 57.1351C27.2449 52.5454 24.128 48.221 19.5383 47.4762C14.9486 46.7314 10.6242 49.8483 9.87935 54.4379C9.13454 59.0276 12.2514 63.3521 16.8411 64.0969C21.4308 64.8417 25.7552 61.7248 26.5 57.1351Z" fill="#F69117"/>
<path d="M215.162 99.2166C148.861 74.3629 67.9982 98.5931 21.3112 148.157C21.0458 148.435 20.7804 148.718 20.5234 149H19.8115C20.0558 148.718 20.3086 148.435 20.5571 148.157C68.2131 94.823 148.002 73.5668 215.162 99.2166Z" fill="#3F3D56"/>
<path d="M233.28 107.461C227.419 104.335 221.368 101.582 215.162 99.2168C221.384 101.543 227.438 104.297 233.28 107.461V107.461Z" fill="#3F3D56"/>
<path opacity="0.4" d="M196.993 82.664C202.093 82.664 206.227 78.5299 206.227 73.4301C206.227 68.3304 202.093 64.1963 196.993 64.1963C191.893 64.1963 187.759 68.3304 187.759 73.4301C187.759 78.5299 191.893 82.664 196.993 82.664Z" fill="#F69117"/>
<path d="M198.021 144.455C198.735 147.093 201.179 148.727 201.179 148.727C201.179 148.727 202.466 146.084 201.753 143.446C201.039 140.808 198.595 139.174 198.595 139.174C198.595 139.174 197.308 141.817 198.021 144.455Z" fill="#3F3D56"/>
<path d="M199.07 143.888C201.028 145.794 201.267 148.725 201.267 148.725C201.267 148.725 198.332 148.564 196.374 146.658C194.416 144.752 194.177 141.822 194.177 141.822C194.177 141.822 197.112 141.982 199.07 143.888Z" fill="#F69117"/>
<path d="M1.41534 107.779V111.848L1.21313 112.067V107.737C1.28053 107.749 1.34795 107.766 1.41534 107.779Z" fill="#3F3D56"/>
<path d="M14.3814 148.156C14.3224 148.253 14.2592 148.349 14.196 148.446H1.21313V107.981L1.41534 107.779L3.13825 109.738V106.873H8.61448V115.964L14.1455 122.245L14.196 122.304C14.2634 122.514 14.3266 122.725 14.3898 122.936C14.3902 122.939 14.3917 122.942 14.394 122.944C15.2235 125.599 15.9042 128.297 16.4329 131.028C17.6376 137.469 17.4565 143.375 14.3814 148.156Z" fill="#CCCCCC"/>
<path d="M5.77174 130.146H2.28613V133.051H5.77174V130.146Z" fill="#3F3D56"/>
<path d="M5.77174 135.375H2.28613V138.279H5.77174V135.375Z" fill="#3F3D56"/>
<path d="M113.142 124.627L111.4 121.723L127.666 107.78C139.691 101.992 154.187 103.662 169.493 107.78V111.847L154.389 128.113L136.961 131.598L113.142 124.627Z" fill="#3F3D56"/>
<path d="M176.693 115.962C179.582 112.749 179.983 109.694 176.693 106.873H171.217V109.739L169.493 107.78L155.551 121.723L153.227 124.046L150.322 135.665L155.551 148.445H182.274V122.304L176.693 115.962Z" fill="#CCCCCC"/>
<path d="M111.4 121.723H155.551V148.446H111.4C106.058 142.667 108.833 132.134 111.4 121.723Z" fill="#F2F2F2"/>
<path d="M149.451 130.146H140.156V138.279H149.451V130.146Z" fill="#3F3D56"/>
<path d="M136.38 129.856H128.247V148.446H136.38V129.856Z" fill="#CCCCCC"/>
<path d="M118.952 132.76V129.856H115.467V132.76H118.661H118.952Z" fill="#3F3D56"/>
<path d="M118.661 135.084H115.467V137.989H118.952V135.084H118.661Z" fill="#3F3D56"/>
<path d="M124.761 129.856H121.276V132.76H124.761V129.856Z" fill="#3F3D56"/>
<path d="M124.761 135.084H121.276V137.989H124.761V135.084Z" fill="#3F3D56"/>
<path d="M168.041 133.051V130.146H164.555V133.051H167.75H168.041Z" fill="#3F3D56"/>
<path d="M167.75 135.375H164.555V138.279H168.041V135.375H167.75Z" fill="#3F3D56"/>
<path d="M173.85 130.146H170.365V133.051H173.85V130.146Z" fill="#3F3D56"/>
<path d="M173.85 135.375H170.365V138.279H173.85V135.375Z" fill="#3F3D56"/>
<path d="M34.528 75.8291L31.6235 73.5051L47.8896 58.9817H89.1358V71.7624L62.4131 89.7716L34.528 75.8291Z" fill="#3F3D56"/>
<path d="M96.656 67.1284V59.2717H91.1798V61.1959L89.1359 58.9814L75.7743 73.5048L70.5461 76.9907L62.4392 136.22L74.6651 148.445H103.078C107.432 126.546 110.884 104.048 103.078 74.0857L96.656 67.1284Z" fill="#CCCCCC"/>
<path d="M31.6232 73.5051H75.7743V148.446H31.6232C26.7919 119.332 24.4323 92.333 31.6232 73.5051Z" fill="#F2F2F2"/>
<path d="M56.8938 130.146H48.7607V148.446H56.8938V130.146Z" fill="#CCCCCC"/>
<path d="M40.0469 135.375V132.47H36.5615V135.375H39.7567H40.0469Z" fill="#3F3D56"/>
<path d="M39.7567 137.698H36.5615V140.603H40.0469V137.698H39.7567Z" fill="#3F3D56"/>
<path d="M45.8564 132.47H42.3708V135.375H45.8564V132.47Z" fill="#3F3D56"/>
<path d="M63.5748 137.698H60.3796V140.603H63.865V137.698H63.5748Z" fill="#3F3D56"/>
<path d="M69.6746 132.47H66.189V135.375H69.6746V132.47Z" fill="#3F3D56"/>
<path d="M69.6746 137.698H66.189V140.603H69.6746V137.698Z" fill="#3F3D56"/>
<path d="M88.2642 77.2812V74.3767H84.7788V77.2812H87.974H88.2642Z" fill="#3F3D56"/>
<path d="M87.974 79.605H84.7788V82.5095H88.2642V79.605H87.974Z" fill="#3F3D56"/>
<path d="M94.074 74.3765H90.5884V77.2811H94.074V74.3765Z" fill="#3F3D56"/>
<path d="M94.074 79.6047H90.5884V82.5094H94.074V79.6047Z" fill="#3F3D56"/>
<path d="M88.2642 93.5475V90.6426H84.7788V93.5475H87.974H88.2642Z" fill="#3F3D56"/>
<path d="M87.974 95.8711H84.7788V98.7756H88.2642V95.8711H87.974Z" fill="#3F3D56"/>
<path d="M94.074 90.6426H90.5884V93.5473H94.074V90.6426Z" fill="#3F3D56"/>
<path d="M94.074 95.8711H90.5884V98.7758H94.074V95.8711Z" fill="#3F3D56"/>
<path d="M88.2642 109.814V106.909H84.7788V109.814H87.974H88.2642Z" fill="#3F3D56"/>
<path d="M87.974 112.137H84.7788V115.042H88.2642V112.137H87.974Z" fill="#3F3D56"/>
<path d="M94.074 106.909H90.5884V109.813H94.074V106.909Z" fill="#3F3D56"/>
<path d="M94.074 112.137H90.5884V115.042H94.074V112.137Z" fill="#3F3D56"/>
<path d="M88.2642 126.08V123.175H84.7788V126.08H87.974H88.2642Z" fill="#3F3D56"/>
<path d="M87.974 128.404H84.7788V131.308H88.2642V128.404H87.974Z" fill="#3F3D56"/>
<path d="M94.074 123.175H90.5884V126.08H94.074V123.175Z" fill="#3F3D56"/>
<path d="M94.074 128.404H90.5884V131.308H94.074V128.404Z" fill="#3F3D56"/>
<path d="M36.5613 77.2812H70.2555V84.2525C59.4555 81.2719 48.1931 81.4857 36.5613 84.2525V77.2812Z" fill="#3F3D56"/>
<path d="M36.5613 91.2234C47.0776 94.3217 58.309 94.3217 70.2555 91.2234V98.1946H36.5613V91.2234Z" fill="#3F3D56"/>
<path d="M36.5613 105.166H70.2555V112.137C58.7726 108.471 47.5293 108.298 36.5613 112.137V105.166Z" fill="#3F3D56"/>
<path d="M36.5613 119.108C47.55 123.343 58.7915 123.167 70.2555 119.108V126.08H36.5613V119.108Z" fill="#3F3D56"/>
<path d="M217.651 106.997H241.325V118.405L239.21 119.066L232.176 121.262L221.139 118.705L210.115 116.151L204.293 114.802L201.386 113.727C203.804 110.409 208.202 107.799 217.651 106.997Z" fill="#3F3D56"/>
<path d="M241.325 113.727V148.446H201.387C201.374 148.425 201.366 148.405 201.353 148.384V148.382C201.344 148.358 201.332 148.334 201.319 148.312C200.696 147.057 200.137 145.805 199.643 144.557C195.451 133.992 195.906 123.707 201.387 113.727H241.325Z" fill="#F2F2F2"/>
<path d="M226.657 130.146H218.524V148.446H226.657V130.146Z" fill="#CCCCCC"/>
<path d="M209.81 135.375V132.47H206.325V135.375H209.52H209.81Z" fill="#3F3D56"/>
<path d="M209.52 137.698H206.325V140.603H209.81V137.698H209.52Z" fill="#3F3D56"/>
<path d="M215.62 132.47H212.134V135.375H215.62V132.47Z" fill="#3F3D56"/>
<path d="M215.62 137.698H212.134V140.603H215.62V137.698Z" fill="#3F3D56"/>
<path d="M233.628 135.375V132.47H230.143V135.375H233.338H233.628Z" fill="#3F3D56"/>
<path d="M233.338 137.698H230.143V140.603H233.628V137.698H233.338Z" fill="#3F3D56"/>
<path d="M239.438 132.47H235.952V135.375H239.438V132.47Z" fill="#3F3D56"/>
<path d="M239.438 137.698H235.952V140.603H239.438V137.698Z" fill="#3F3D56"/>
<path d="M210.116 93.5173H215.123C220.061 93.5173 224.797 95.4791 228.289 98.971C231.781 102.463 233.743 107.199 233.743 112.137V112.137H210.116V93.5173Z" fill="#3F3D56"/>
<path d="M58.4663 42.9675H63.4732C68.4115 42.9675 73.1475 44.9293 76.6394 48.4212C80.1313 51.9131 82.0931 56.6491 82.0931 61.5874V61.5874H58.4663V42.9675Z" fill="#3F3D56"/>
<path d="M138.504 89.7261H143.511C148.449 89.7261 153.185 91.6878 156.677 95.1797C160.169 98.6716 162.13 103.408 162.13 108.346V108.346H138.504V89.7261Z" fill="#3F3D56"/>
<path d="M233.743 119.108H210.116V126.08H233.743V119.108Z" fill="#3F3D56"/>
<path d="M241.325 148.157H1.21313V149H241.325V148.157Z" fill="#3F3D56"/>
<path d="M23.3586 114.877H22.5161V148.155H23.3586V114.877Z" fill="#3F3D56"/>
<path d="M31.1341 119.118C31.1877 130.755 23.0006 140.226 23.0006 140.226C23.0006 140.226 12.516 130.629 14.673 119.194C16.8423 107.693 23.6031 98.1345 22.8064 98.0857C22.8064 98.0857 31.0804 107.481 31.1341 119.118Z" fill="#F69117"/>
<path d="M107.608 114.877H106.766V148.155H107.608V114.877Z" fill="#3F3D56"/>
<path d="M115.384 119.118C116.143 130.73 107.25 140.226 107.25 140.226C107.25 140.226 98.9763 130.831 98.9226 119.194C98.869 107.557 107.056 98.0857 107.056 98.0857C106.258 101.276 114.769 109.722 115.384 119.118Z" fill="#F69117"/>
<path d="M52.8721 60.7818L89.4677 58.9915L104.819 71.8054L102.105 74.2558L77.7953 73.7086L52.8721 60.7818Z" fill="#3F3D56"/>
<path d="M16.3571 120.248L14.3857 122.03L14.1456 122.245L13.6443 122.7L1.2132 122.422V107.737C0.8088 107.648 0.404399 107.564 0 107.484L1.00679 107.434L1.2132 107.606L3.13831 109.211L8.61455 113.786L14.7311 118.892L16.3571 120.248Z" fill="#3F3D56"/>
<path d="M132.909 109.225L169.505 107.435L184.857 120.249L182.142 122.699L157.833 122.152L132.909 109.225Z" fill="#3F3D56"/>
</svg>
